<svg width="256" height="256" viewBox="0 0 256 256" fill="none" xmlns="http://www.w3.org/2000/svg">
<path d="M128 0C57.307 0 0 57.307 0 128C0 198.693 57.307 256 128 256C198.693 256 256 198.693 256 128C256 57.307 198.693 0 128 0Z" fill="#40B3E0"/>
<path d="M190.281 73.631L167.419 188.898C167.419 188.898 164.222 196.892 155.429 193.055L102.671 152.607L83.4874 143.335L51.1934 132.463C51.1934 132.463 46.2374 130.705 45.7574 126.868C45.2784 123.031 51.3534 120.953 51.3534 120.953L179.729 70.593C179.729 70.593 190.281 65.957 190.281 73.631Z" fill="white"/>
<path d="M98.6173 187.604C98.6173 187.604 97.0773 187.46 95.1583 181.384C93.2403 175.309 83.4883 143.335 83.4883 143.335L161.025 94.0947C161.025 94.0947 165.502 91.3767 165.342 94.0947C165.342 94.0947 166.141 94.5737 163.743 96.8117C161.345 99.0507 102.832 151.648 102.832 151.648" fill="#D2E5F1"/>
<path d="M122.901 168.116L102.033 187.142C102.033 187.142 100.402 188.38 98.6172 187.604L102.613 152.263" fill="#B5CFE4"/>
</svg>
